<?xml version="1.0" encoding="UTF-8"?>
<svg id="Layer_2" data-name="Layer 2" xmlns="http://www.w3.org/2000/svg" viewBox="0 0 322.86 336.93">
  <defs>
    <style>
      .cls-1 {
        font-family: Audrielle-No1, 'Audrielle No 1';
        font-size: 90px;
      }

      .cls-1, .cls-2, .cls-3 {
        fill: #fff;
      }

      .cls-2 {
        font-family: ArabicTypesetting, 'Arabic Typesetting';
        font-size: 36px;
      }

      .cls-4 {
        fill: #020202;
      }

      .cls-5 {
        letter-spacing: -.01em;
      }
    </style>
  </defs>
  <g id="Layer_1-2" data-name="Layer 1">
    <g>
      <circle class="cls-4" cx="161.43" cy="177.53" r="159.39"/>
      <g>
        <text class="cls-2" transform="translate(85.56 285.91) rotate(29.62)"><tspan x="0" y="0">s</tspan></text>
        <text class="cls-2" transform="translate(92.94 290.08) rotate(26.78)"><tspan x="0" y="0">i</tspan></text>
        <text class="cls-2" transform="translate(97.87 292.72) rotate(23.3)"><tspan x="0" y="0">p</tspan></text>
        <text class="cls-2" transform="translate(108.98 297.42) rotate(19.91)"><tspan x="0" y="0">.</tspan></text>
        <text class="cls-2" transform="translate(114.19 299.33) rotate(17.47)"><tspan x="0" y="0"> </tspan></text>
        <text class="cls-2" transform="translate(120.38 301.33) rotate(14.51)"><tspan x="0" y="0">s</tspan></text>
        <text class="cls-2" transform="translate(127.47 303.49) rotate(9.41)"><tspan x="0" y="0">m</tspan></text>
        <text class="cls-2" transform="translate(145.88 306.33) rotate(4.76)"><tspan x="0" y="0">i</tspan></text>
        <text class="cls-2" transform="translate(151.98 306.84) rotate(2.4)"><tspan x="0" y="0">l</tspan></text>
        <text class="cls-2" transform="translate(157.5 307.19) rotate(-.93)"><tspan x="0" y="0">e</tspan></text>
        <text class="cls-2" transform="translate(167.54 307.01) rotate(-3.53)"><tspan x="0" y="0">.</tspan></text>
        <text class="cls-2" transform="translate(173.05 306.7) rotate(-5.92)"><tspan x="0" y="0"> </tspan></text>
        <text class="cls-2" transform="translate(179.56 306.06) rotate(-8.83)"><tspan x="0" y="0">r</tspan></text>
        <text class="cls-2" transform="translate(187.48 304.89) rotate(-12.32)"><tspan x="0" y="0">e</tspan></text>
        <text class="cls-2" transform="translate(196.57 303) rotate(-16.48)"><tspan x="0" y="0">p</tspan></text>
        <text class="cls-2" transform="translate(207.83 299.67) rotate(-20.65)"><tspan x="0" y="0">e</tspan></text>
        <text class="cls-2" transform="translate(216.69 296.38) rotate(-24.45)"><tspan x="0" y="0">a</tspan></text>
        <text class="cls-2" transform="translate(225.76 292.23) rotate(-27.74)"><tspan x="0" y="0">t</tspan></text>
        <text class="cls-2" transform="translate(232.07 288.9) rotate(-30.24)"><tspan x="0" y="0">.</tspan></text>
        <text class="cls-1" transform="translate(82.89 108.09)"><tspan class="cls-5" x="0" y="0">t</tspan><tspan x="9.9" y="0">he</tspan></text>
        <g>
          <path class="cls-3" d="M74.18,187.7v-64.08h9.18v27.45h11.34v-27.45h9.18v64.08h-9.18v-28.53h-11.34v28.53h-9.18Z"/>
          <path class="cls-3" d="M108.38,187.7l14.31-64.08h7.65l14.31,64.08h-9.18l-2.7-13.77h-12.51l-2.7,13.77h-9.18ZM131.06,165.29l-4.5-23.22h-.18l-4.5,23.22h9.18Z"/>
          <path class="cls-3" d="M149.15,187.7v-64.08h13.77c2.52,0,4.74.33,6.66.99,1.92.66,3.66,1.83,5.22,3.51,1.56,1.68,2.64,3.65,3.24,5.9.6,2.25.9,5.3.9,9.14,0,2.88-.17,5.31-.5,7.29-.33,1.98-1.04,3.84-2.12,5.58-1.26,2.1-2.94,3.74-5.04,4.91-2.1,1.17-4.86,1.75-8.28,1.75h-4.68v25.02h-9.18ZM158.33,132.26v21.78h4.41c1.86,0,3.3-.27,4.32-.81,1.02-.54,1.77-1.29,2.25-2.25.48-.9.76-2.01.85-3.33s.14-2.79.14-4.41c0-1.5-.03-2.93-.09-4.28-.06-1.35-.33-2.53-.81-3.55-.48-1.02-1.2-1.8-2.16-2.34-.96-.54-2.34-.81-4.14-.81h-4.77Z"/>
          <path class="cls-3" d="M185.78,187.7v-64.08h13.77c2.52,0,4.74.33,6.66.99,1.92.66,3.66,1.83,5.22,3.51,1.56,1.68,2.64,3.65,3.24,5.9.6,2.25.9,5.3.9,9.14,0,2.88-.17,5.31-.5,7.29-.33,1.98-1.04,3.84-2.12,5.58-1.26,2.1-2.94,3.74-5.04,4.91-2.1,1.17-4.86,1.75-8.28,1.75h-4.68v25.02h-9.18ZM194.96,132.26v21.78h4.41c1.86,0,3.3-.27,4.32-.81,1.02-.54,1.77-1.29,2.25-2.25.48-.9.76-2.01.85-3.33s.14-2.79.14-4.41c0-1.5-.03-2.93-.09-4.28-.06-1.35-.33-2.53-.81-3.55-.48-1.02-1.2-1.8-2.16-2.34-.96-.54-2.34-.81-4.14-.81h-4.77Z"/>
          <path class="cls-3" d="M230.96,187.7v-27.09l-12.6-36.99h9.72l7.38,25.47h.18l7.38-25.47h9.72l-12.6,36.99v27.09h-9.18Z"/>
          <path class="cls-3" d="M139.11,239.43v3.96c0,1.98-.38,3.86-1.12,5.62-.75,1.77-1.79,3.35-3.1,4.73-1.32,1.38-2.87,2.47-4.63,3.29-1.77.81-3.68,1.21-5.72,1.21-1.74,0-3.51-.24-5.31-.72s-3.42-1.32-4.86-2.52c-1.44-1.2-2.62-2.75-3.55-4.63-.93-1.89-1.4-4.3-1.4-7.25v-35.28c0-2.1.36-4.05,1.08-5.85.72-1.8,1.74-3.36,3.06-4.68,1.32-1.32,2.89-2.35,4.72-3.1,1.83-.75,3.85-1.12,6.08-1.12,4.32,0,7.83,1.41,10.53,4.23,1.32,1.38,2.35,3.01,3.1,4.91.75,1.89,1.12,3.95,1.12,6.17v3.6h-9.18v-3.06c0-1.8-.51-3.36-1.53-4.68-1.02-1.32-2.4-1.98-4.14-1.98-2.28,0-3.8.71-4.54,2.12-.75,1.41-1.12,3.2-1.12,5.35v32.76c0,1.86.41,3.42,1.21,4.68s2.26,1.89,4.37,1.89c.6,0,1.24-.1,1.93-.32.69-.21,1.33-.55,1.94-1.04.54-.48.99-1.14,1.35-1.98.36-.84.54-1.89.54-3.15v-3.15h9.18Z"/>
          <path class="cls-3" d="M176.28,193.62v49.68c0,2.1-.38,4.04-1.12,5.8-.75,1.77-1.82,3.35-3.19,4.73-1.38,1.38-2.97,2.46-4.77,3.24-1.8.78-3.72,1.17-5.76,1.17s-3.95-.39-5.71-1.17c-1.77-.78-3.35-1.86-4.73-3.24-1.38-1.38-2.46-2.96-3.24-4.73-.78-1.77-1.17-3.7-1.17-5.8v-49.68h9.18v48.78c0,2.28.54,3.96,1.62,5.04s2.43,1.62,4.05,1.62,2.97-.54,4.05-1.62,1.62-2.76,1.62-5.04v-48.78h9.18Z"/>
          <path class="cls-3" d="M184.92,257.7v-64.08h13.77c2.52,0,4.74.33,6.66.99,1.92.66,3.66,1.83,5.22,3.51,1.56,1.68,2.64,3.65,3.24,5.9.6,2.25.9,5.3.9,9.14,0,2.88-.17,5.31-.5,7.29-.33,1.98-1.04,3.84-2.12,5.58-1.26,2.1-2.94,3.74-5.04,4.91-2.1,1.17-4.86,1.75-8.28,1.75h-4.68v25.02h-9.18ZM194.1,202.26v21.78h4.41c1.86,0,3.3-.27,4.32-.81,1.02-.54,1.77-1.29,2.25-2.25.48-.9.76-2.01.85-3.33s.14-2.79.14-4.41c0-1.5-.03-2.93-.09-4.28-.06-1.35-.33-2.53-.81-3.55-.48-1.02-1.2-1.8-2.16-2.34-.96-.54-2.34-.81-4.14-.81h-4.77Z"/>
        </g>
      </g>
    </g>
  </g>
</svg>