<?xml version="1.0" encoding="UTF-8"?>
<svg id="Layer_2" data-name="Layer 2" xmlns="http://www.w3.org/2000/svg" viewBox="0 0 116.15 116.3">
  <defs>
    <style>
      .cls-1, .cls-2 {
        fill: #231f20;
      }

      .cls-2 {
        font-family: Audrielle-No1, 'Audrielle No 1';
        font-size: 36px;
      }

      .cls-3 {
        letter-spacing: -.01em;
      }
    </style>
  </defs>
  <g id="Layer_1-2" data-name="Layer 1">
    <g>
      <text class="cls-2" transform="translate(28.01 32.81)"><tspan class="cls-3" x="0" y="0">t</tspan><tspan x="3.96" y="0">he</tspan></text>
      <g>
        <path class="cls-1" d="M23.17,62.66v-25.63h3.67v10.98h4.54v-10.98h3.67v25.63h-3.67v-11.41h-4.54v11.41h-3.67Z"/>
        <path class="cls-1" d="M36.85,62.66l5.72-25.63h3.06l5.72,25.63h-3.67l-1.08-5.51h-5l-1.08,5.51h-3.67ZM45.93,53.69l-1.8-9.29h-.07l-1.8,9.29h3.67Z"/>
        <path class="cls-1" d="M53.16,62.66v-25.63h5.51c1.01,0,1.9.13,2.66.4s1.46.73,2.09,1.4c.62.67,1.06,1.46,1.3,2.36.24.9.36,2.12.36,3.65,0,1.15-.07,2.12-.2,2.92s-.41,1.54-.85,2.23c-.5.84-1.18,1.49-2.02,1.96-.84.47-1.94.7-3.31.7h-1.87v10.01h-3.67ZM56.83,40.48v8.71h1.76c.74,0,1.32-.11,1.73-.32.41-.22.71-.52.9-.9.19-.36.31-.8.34-1.33.04-.53.05-1.12.05-1.76,0-.6-.01-1.17-.04-1.71s-.13-1.01-.32-1.42c-.19-.41-.48-.72-.86-.94-.38-.22-.94-.32-1.66-.32h-1.91Z"/>
        <path class="cls-1" d="M67.81,62.66v-25.63h5.51c1.01,0,1.9.13,2.66.4s1.46.73,2.09,1.4c.62.67,1.06,1.46,1.3,2.36.24.9.36,2.12.36,3.65,0,1.15-.07,2.12-.2,2.92s-.41,1.54-.85,2.23c-.5.84-1.18,1.49-2.02,1.96-.84.47-1.94.7-3.31.7h-1.87v10.01h-3.67ZM71.48,40.48v8.71h1.76c.74,0,1.32-.11,1.73-.32.41-.22.71-.52.9-.9.19-.36.31-.8.34-1.33.04-.53.05-1.12.05-1.76,0-.6-.01-1.17-.04-1.71s-.13-1.01-.32-1.42c-.19-.41-.48-.72-.86-.94-.38-.22-.94-.32-1.66-.32h-1.91Z"/>
        <path class="cls-1" d="M85.88,62.66v-10.84l-5.04-14.8h3.89l2.95,10.19h.07l2.95-10.19h3.89l-5.04,14.8v10.84h-3.67Z"/>
        <path class="cls-1" d="M49.15,86.35v1.58c0,.79-.15,1.54-.45,2.25-.3.71-.71,1.34-1.24,1.89-.53.55-1.15.99-1.85,1.31-.71.32-1.47.49-2.29.49-.7,0-1.4-.1-2.12-.29-.72-.19-1.37-.53-1.94-1.01-.58-.48-1.05-1.1-1.42-1.85s-.56-1.72-.56-2.9v-14.11c0-.84.14-1.62.43-2.34.29-.72.7-1.34,1.22-1.87.53-.53,1.16-.94,1.89-1.24.73-.3,1.54-.45,2.43-.45,1.73,0,3.13.56,4.21,1.69.53.55.94,1.21,1.24,1.96.3.76.45,1.58.45,2.47v1.44h-3.67v-1.22c0-.72-.2-1.34-.61-1.87-.41-.53-.96-.79-1.66-.79-.91,0-1.52.28-1.82.85-.3.56-.45,1.28-.45,2.14v13.1c0,.74.16,1.37.49,1.87.32.5.91.76,1.75.76.24,0,.5-.04.77-.13.28-.08.53-.22.77-.41.22-.19.4-.46.54-.79.14-.34.22-.76.22-1.26v-1.26h3.67Z"/>
        <path class="cls-1" d="M64.01,68.03v19.87c0,.84-.15,1.61-.45,2.32-.3.71-.73,1.34-1.28,1.89s-1.19.98-1.91,1.3c-.72.31-1.49.47-2.3.47s-1.58-.16-2.29-.47-1.34-.74-1.89-1.3c-.55-.55-.98-1.18-1.3-1.89-.31-.71-.47-1.48-.47-2.32v-19.87h3.67v19.51c0,.91.22,1.58.65,2.02.43.43.97.65,1.62.65s1.19-.22,1.62-.65.65-1.1.65-2.02v-19.51h3.67Z"/>
        <path class="cls-1" d="M67.47,93.66v-25.63h5.51c1.01,0,1.9.13,2.66.4s1.46.73,2.09,1.4c.62.67,1.06,1.46,1.3,2.36.24.9.36,2.12.36,3.65,0,1.15-.07,2.12-.2,2.92s-.41,1.54-.85,2.23c-.5.84-1.18,1.49-2.02,1.96-.84.47-1.94.7-3.31.7h-1.87v10.01h-3.67ZM71.14,71.48v8.71h1.76c.74,0,1.32-.11,1.73-.32.41-.22.71-.52.9-.9.19-.36.31-.8.34-1.33.04-.53.05-1.12.05-1.76,0-.6-.01-1.17-.04-1.71s-.13-1.01-.32-1.42c-.19-.41-.48-.72-.86-.94-.38-.22-.94-.32-1.66-.32h-1.91Z"/>
      </g>
    </g>
  </g>
</svg>